<svg xmlns="http://www.w3.org/2000/svg" width="1200" height="300" viewBox="0 0 1200 300" role="img" aria-labelledby="title desc">
  <title id="title">Sai Pranav Pragada</title>
  <desc id="desc">Backend engineering and applied AI, on a navy background with blue and teal geometric accents.</desc>
  <defs>
    <linearGradient id="bg" x2="1" y2="1"><stop stop-color="#101c36"/><stop offset="1" stop-color="#0c292e"/></linearGradient>
    <linearGradient id="accent"><stop stop-color="#60a5fa"/><stop offset="1" stop-color="#5eead4"/></linearGradient>
  </defs>
  <rect width="1200" height="300" rx="20" fill="url(#bg)"/>
  <g fill="none" stroke="#5eead4" stroke-opacity=".12">
    <circle cx="1090" cy="150" r="210"/><circle cx="1090" cy="150" r="160"/><circle cx="1090" cy="150" r="110"/>
    <path d="M860 0v300M940 0v300M1020 0v300M1100 0v300M1180 0v300M830 70h370M830 150h370M830 230h370"/>
  </g>
  <rect x="58" y="58" width="48" height="5" rx="2.5" fill="url(#accent)"/>
  <text x="58" y="133" fill="#f0f6fc" font-family="Segoe UI,Arial,sans-serif" font-size="52" font-weight="700">Sai Pranav Pragada</text>
  <text x="60" y="184" fill="#b4c6dc" font-family="Segoe UI,Arial,sans-serif" font-size="26">Backend engineering &amp; applied AI</text>
  <text x="60" y="244" fill="#5eead4" font-family="Consolas,monospace" font-size="18" letter-spacing="3">BUILD · TEST · SHIP</text>
  <path d="m1030 116-38 34 38 34m82-68 38 34-38 34m-31-86-20 104" fill="none" stroke="url(#accent)" stroke-width="7" stroke-linecap="round" stroke-linejoin="round"/>
</svg>
